# xmcd CD database file
#
# Track frame offsets:
#	150
#	13010
#	15960
#	35855
#	61708
#	78855
#	82878
#	91950
#	126924
#	137641
#	171568
#	177164
#	190184
#	203950
#	219084
#	237872
#	265955
#
# Disc length: 3736 seconds
#
# Revision: 0
# Processed by: cddbd v1.5.2PL0 Copyright (c) Steve Scherf et al.
# Submitted via: CDex 1.51
#
DISCID=db0e9611
DTITLE=Oliver Steidle - Blaulicht
DYEAR=2007
DGENRE=Jazz
TTITLE0=Pad A Riddle
TTITLE1=Hang Over Postbauer Rag
TTITLE2=Stegobium Paniceum
TTITLE3=Stormtroopers Of Love
TTITLE4=1. FC N
TTITLE5=Dermester Lardarius
TTITLE6=There Will Be Another You
TTITLE7=Attagenus Unicolor
TTITLE8=This Stuff Makes Elephants Sleep
TTITLE9=Cheers For H. M.
TTITLE10=Heartfull Piece Of Peace
TTITLE11=Hope
TTITLE12=Mellow Fellow
TTITLE13=Dermestes Bicolor
TTITLE14=Rani Banani
TTITLE15=Leverington 3CPS
TTITLE16=Agathidium Bushi
EXTD=YEAR: 2007
EXTT0=
EXTT1=
EXTT2=
EXTT3=
EXTT4=
EXTT5=
EXTT6=
EXTT7=
EXTT8=
EXTT9=
EXTT10=
EXTT11=
EXTT12=
EXTT13=
EXTT14=
EXTT15=
EXTT16=
PLAYORDER=
